<svg width="900" height="1100" viewBox="0 0 900 1100" xmlns="http://www.w3.org/2000/svg">

<!-- ═══════════════════════════════════════════════════════ -->
<!--  BACKGROUND                                            -->
<!-- ═══════════════════════════════════════════════════════ -->
<rect width="900" height="1100" fill="#1a1a1a"/>

<!-- ═══════════════════════════════════════════════════════ -->
<!--  SECTION 1 · HEADER ATMOSPHERIC SHAPES                -->
<!-- ═══════════════════════════════════════════════════════ -->

<!-- Terrain cluster A (center-left stepped) -->
<rect x="290" y="130" width="4" height="4" fill="#242424"/><rect x="296" y="130" width="4" height="4" fill="#242424"/>
<rect x="302" y="130" width="4" height="4" fill="#242424"/><rect x="308" y="130" width="4" height="4" fill="#242424"/>
<rect x="314" y="130" width="4" height="4" fill="#242424"/><rect x="320" y="130" width="4" height="4" fill="#242424"/>
<rect x="326" y="130" width="4" height="4" fill="#242424"/><rect x="332" y="130" width="4" height="4" fill="#242424"/>
<rect x="302" y="124" width="4" height="4" fill="#242424"/><rect x="308" y="124" width="4" height="4" fill="#242424"/>
<rect x="314" y="124" width="4" height="4" fill="#242424"/><rect x="320" y="124" width="4" height="4" fill="#242424"/>
<rect x="314" y="118" width="4" height="4" fill="#242424"/><rect x="320" y="118" width="4" height="4" fill="#242424"/>
<rect x="320" y="112" width="4" height="4" fill="#242424"/>

<!-- Terrain cluster B (upper center) -->
<rect x="460" y="118" width="4" height="4" fill="#242424"/><rect x="466" y="118" width="4" height="4" fill="#242424"/>
<rect x="472" y="118" width="4" height="4" fill="#242424"/><rect x="478" y="118" width="4" height="4" fill="#242424"/>
<rect x="484" y="118" width="4" height="4" fill="#242424"/>
<rect x="466" y="112" width="4" height="4" fill="#242424"/><rect x="472" y="112" width="4" height="4" fill="#242424"/>
<rect x="478" y="112" width="4" height="4" fill="#242424"/>
<rect x="472" y="106" width="4" height="4" fill="#242424"/>

<!-- Abstract shape (right side, like Claude's C-shape) -->
<rect x="600" y="82" width="4" height="4" fill="#242424"/><rect x="606" y="82" width="4" height="4" fill="#242424"/>
<rect x="612" y="82" width="4" height="4" fill="#242424"/><rect x="618" y="82" width="4" height="4" fill="#242424"/>
<rect x="600" y="88" width="4" height="4" fill="#242424"/>
<rect x="600" y="94" width="4" height="4" fill="#242424"/><rect x="606" y="94" width="4" height="4" fill="#242424"/>
<rect x="600" y="100" width="4" height="4" fill="#242424"/>
<rect x="600" y="106" width="4" height="4" fill="#242424"/><rect x="606" y="106" width="4" height="4" fill="#242424"/>
<rect x="612" y="106" width="4" height="4" fill="#242424"/><rect x="618" y="106" width="4" height="4" fill="#242424"/>

<!-- Stars -->
<text x="44"  y="78"  fill="#363636" font-family="monospace" font-size="14">*</text>
<text x="18"  y="162" fill="#363636" font-family="monospace" font-size="14">*</text>
<text x="536" y="96"  fill="#363636" font-family="monospace" font-size="14">*</text>
<text x="660" y="68"  fill="#363636" font-family="monospace" font-size="14">*</text>
<text x="206" y="52"  fill="#363636" font-family="monospace" font-size="14">*</text>
<text x="430" y="188" fill="#363636" font-family="monospace" font-size="14">*</text>

<!-- ═══════════════════════════════════════════════════════ -->
<!--  WELCOME BOX                                          -->
<!-- ═══════════════════════════════════════════════════════ -->
<rect x="40" y="22" width="356" height="46" rx="4" fill="none" stroke="#D97757" stroke-width="1.5"/>
<text x="57" y="53" fill="#D97757" font-family="'Courier New',Courier,monospace" font-size="19" font-weight="bold">&#10022;  Welcome to ninodinoo</text>

<!-- ═══════════════════════════════════════════════════════ -->
<!--  NINODINOO TITLE + SUBTITLE                           -->
<!-- ═══════════════════════════════════════════════════════ -->
<text x="38" y="188" fill="#D97757" font-family="'Courier New',Courier,monospace" font-size="100" font-weight="bold">NINODINOO</text>
<text x="46" y="220" fill="#555" font-family="'Courier New',Courier,monospace" font-size="16">AI Developer  ·  Claude Code Power User  ·  Builder</text>

<!-- ═══════════════════════════════════════════════════════ -->
<!--  PIXEL ART DINO                                        -->
<!-- ═══════════════════════════════════════════════════════ -->

<!-- Row 0 -->
<rect x="737" y="85"  width="14" height="14" fill="#D97757"/>
<rect x="751" y="85"  width="14" height="14" fill="#D97757"/>
<rect x="765" y="85"  width="14" height="14" fill="#D97757"/>
<rect x="779" y="85"  width="14" height="14" fill="#D97757"/>
<rect x="793" y="85"  width="14" height="14" fill="#D97757"/>
<rect x="807" y="85"  width="14" height="14" fill="#D97757"/>
<!-- Row 1 -->
<rect x="723" y="99"  width="14" height="14" fill="#D97757"/>
<rect x="737" y="99"  width="14" height="14" fill="#D97757"/>
<rect x="751" y="99"  width="14" height="14" fill="#D97757"/>
<rect x="765" y="99"  width="14" height="14" fill="#D97757"/>
<rect x="779" y="99"  width="14" height="14" fill="#D97757"/>
<rect x="793" y="99"  width="14" height="14" fill="#D97757"/>
<rect x="807" y="99"  width="14" height="14" fill="#D97757"/>
<rect x="821" y="99"  width="14" height="14" fill="#D97757"/>
<!-- Row 2 -->
<rect x="723" y="113" width="14" height="14" fill="#D97757"/>
<rect x="737" y="113" width="14" height="14" fill="#D97757"/>
<rect x="779" y="113" width="14" height="14" fill="#D97757"/>
<rect x="821" y="113" width="14" height="14" fill="#D97757"/>
<!-- Row 3 -->
<rect x="723" y="127" width="14" height="14" fill="#D97757"/>
<rect x="737" y="127" width="14" height="14" fill="#D97757"/>
<rect x="779" y="127" width="14" height="14" fill="#D97757"/>
<rect x="821" y="127" width="14" height="14" fill="#D97757"/>
<!-- Row 4 -->
<rect x="723" y="141" width="14" height="14" fill="#D97757"/>
<rect x="737" y="141" width="14" height="14" fill="#D97757"/>
<rect x="751" y="141" width="14" height="14" fill="#D97757"/>
<rect x="765" y="141" width="14" height="14" fill="#D97757"/>
<rect x="779" y="141" width="14" height="14" fill="#D97757"/>
<rect x="793" y="141" width="14" height="14" fill="#D97757"/>
<rect x="807" y="141" width="14" height="14" fill="#D97757"/>
<rect x="821" y="141" width="14" height="14" fill="#D97757"/>
<!-- Row 5 -->
<rect x="709" y="155" width="14" height="14" fill="#D97757"/>
<rect x="723" y="155" width="14" height="14" fill="#D97757"/>
<rect x="737" y="155" width="14" height="14" fill="#D97757"/>
<rect x="751" y="155" width="14" height="14" fill="#D97757"/>
<rect x="793" y="155" width="14" height="14" fill="#D97757"/>
<rect x="807" y="155" width="14" height="14" fill="#D97757"/>
<rect x="821" y="155" width="14" height="14" fill="#D97757"/>
<!-- Row 6 -->
<rect x="737" y="169" width="14" height="14" fill="#D97757"/>
<rect x="751" y="169" width="14" height="14" fill="#D97757"/>
<rect x="765" y="169" width="14" height="14" fill="#D97757"/>
<rect x="779" y="169" width="14" height="14" fill="#D97757"/>
<rect x="793" y="169" width="14" height="14" fill="#D97757"/>
<rect x="807" y="169" width="14" height="14" fill="#D97757"/>
<!-- Row 7 -->
<rect x="723" y="183" width="14" height="14" fill="#D97757"/>
<rect x="737" y="183" width="14" height="14" fill="#D97757"/>
<rect x="751" y="183" width="14" height="14" fill="#D97757"/>
<rect x="765" y="183" width="14" height="14" fill="#D97757"/>
<rect x="779" y="183" width="14" height="14" fill="#D97757"/>
<rect x="793" y="183" width="14" height="14" fill="#D97757"/>
<rect x="807" y="183" width="14" height="14" fill="#D97757"/>
<rect x="821" y="183" width="14" height="14" fill="#D97757"/>
<!-- Row 8 -->
<rect x="695" y="197" width="14" height="14" fill="#D97757"/>
<rect x="709" y="197" width="14" height="14" fill="#D97757"/>
<rect x="723" y="197" width="14" height="14" fill="#D97757"/>
<rect x="737" y="197" width="14" height="14" fill="#D97757"/>
<rect x="751" y="197" width="14" height="14" fill="#D97757"/>
<rect x="765" y="197" width="14" height="14" fill="#D97757"/>
<rect x="779" y="197" width="14" height="14" fill="#D97757"/>
<rect x="793" y="197" width="14" height="14" fill="#D97757"/>
<rect x="807" y="197" width="14" height="14" fill="#D97757"/>
<rect x="821" y="197" width="14" height="14" fill="#D97757"/>
<rect x="835" y="197" width="14" height="14" fill="#D97757"/>
<!-- Row 9 -->
<rect x="695" y="211" width="14" height="14" fill="#D97757"/>
<rect x="723" y="211" width="14" height="14" fill="#D97757"/>
<rect x="737" y="211" width="14" height="14" fill="#D97757"/>
<rect x="751" y="211" width="14" height="14" fill="#D97757"/>
<rect x="793" y="211" width="14" height="14" fill="#D97757"/>
<rect x="807" y="211" width="14" height="14" fill="#D97757"/>
<rect x="821" y="211" width="14" height="14" fill="#D97757"/>
<rect x="849" y="211" width="14" height="14" fill="#D97757"/>
<rect x="863" y="211" width="14" height="14" fill="#D97757"/>
<!-- Row 10 -->
<rect x="723" y="225" width="14" height="14" fill="#D97757"/>
<rect x="737" y="225" width="14" height="14" fill="#D97757"/>
<rect x="751" y="225" width="14" height="14" fill="#D97757"/>
<rect x="793" y="225" width="14" height="14" fill="#D97757"/>
<rect x="807" y="225" width="14" height="14" fill="#D97757"/>
<rect x="821" y="225" width="14" height="14" fill="#D97757"/>
<rect x="863" y="225" width="14" height="14" fill="#D97757"/>
<!-- Row 11 -->
<rect x="723" y="239" width="14" height="14" fill="#D97757"/>
<rect x="737" y="239" width="14" height="14" fill="#D97757"/>
<rect x="751" y="239" width="14" height="14" fill="#D97757"/>
<rect x="765" y="239" width="14" height="14" fill="#D97757"/>
<rect x="779" y="239" width="14" height="14" fill="#D97757"/>
<rect x="793" y="239" width="14" height="14" fill="#D97757"/>
<rect x="807" y="239" width="14" height="14" fill="#D97757"/>
<rect x="821" y="239" width="14" height="14" fill="#D97757"/>
<!-- Row 12 -->
<rect x="737" y="253" width="14" height="14" fill="#D97757"/>
<rect x="751" y="253" width="14" height="14" fill="#D97757"/>
<rect x="793" y="253" width="14" height="14" fill="#D97757"/>
<rect x="807" y="253" width="14" height="14" fill="#D97757"/>
<!-- Row 13 -->
<rect x="737" y="267" width="14" height="14" fill="#D97757"/>
<rect x="751" y="267" width="14" height="14" fill="#D97757"/>
<rect x="793" y="267" width="14" height="14" fill="#D97757"/>
<rect x="807" y="267" width="14" height="14" fill="#D97757"/>
<!-- Row 14 -->
<rect x="723" y="281" width="14" height="14" fill="#D97757"/>
<rect x="737" y="281" width="14" height="14" fill="#D97757"/>
<rect x="751" y="281" width="14" height="14" fill="#D97757"/>
<rect x="779" y="281" width="14" height="14" fill="#D97757"/>
<rect x="793" y="281" width="14" height="14" fill="#D97757"/>
<rect x="807" y="281" width="14" height="14" fill="#D97757"/>

<!-- ═══════════════════════════════════════════════════════ -->
<!--  SECTION 1 SEPARATOR + MENU                           -->
<!-- ═══════════════════════════════════════════════════════ -->
<line x1="0" y1="330" x2="900" y2="330" stroke="#2a2a2a" stroke-width="1.5" stroke-dasharray="3,5"/>
<text x="40"  y="364" fill="#D97757" font-family="'Courier New',Courier,monospace" font-size="18">&#10095;</text>
<text x="64"  y="364" fill="#cccccc" font-family="'Courier New',Courier,monospace" font-size="18" font-weight="bold">1.  Building AI tools &amp; Claude Code extensions</text>
<text x="64"  y="394" fill="#505050" font-family="'Courier New',Courier,monospace" font-size="18">2.  Flutter · Dart · Supabase · Kotlin · Java</text>

<!-- ═══════════════════════════════════════════════════════ -->
<!--  SECTION 2 · TECH STACK                               -->
<!-- ═══════════════════════════════════════════════════════ -->
<line x1="0" y1="426" x2="900" y2="426" stroke="#2a2a2a" stroke-width="1.5" stroke-dasharray="3,5"/>

<text x="40"  y="458" fill="#888" font-family="'Courier New',Courier,monospace" font-size="18">ninodinoo@dev</text>
<text x="208" y="458" fill="#D97757" font-family="'Courier New',Courier,monospace" font-size="18">  ~/tech-stack  &#x26A1;</text>

<line x1="0" y1="474" x2="900" y2="474" stroke="#2a2a2a" stroke-width="1.5" stroke-dasharray="3,5"/>

<text x="40"  y="510" fill="#D97757" font-family="'Courier New',Courier,monospace" font-size="18">$</text>
<text x="62"  y="510" fill="#cccccc" font-family="'Courier New',Courier,monospace" font-size="18">cat ./ai-tooling</text>
<text x="62"  y="536" fill="#666" font-family="'Courier New',Courier,monospace" font-size="16">claude-code  ·  mcp-servers  ·  anthropic-sdk  ·  prompt-engineering</text>

<text x="40"  y="572" fill="#D97757" font-family="'Courier New',Courier,monospace" font-size="18">$</text>
<text x="62"  y="572" fill="#cccccc" font-family="'Courier New',Courier,monospace" font-size="18">cat ./languages</text>
<text x="62"  y="598" fill="#666" font-family="'Courier New',Courier,monospace" font-size="16">dart  ·  flutter  ·  kotlin  ·  java  ·  typescript  ·  assembly</text>

<text x="40"  y="634" fill="#D97757" font-family="'Courier New',Courier,monospace" font-size="18">$</text>
<text x="62"  y="634" fill="#cccccc" font-family="'Courier New',Courier,monospace" font-size="18">cat ./backend</text>
<text x="62"  y="660" fill="#666" font-family="'Courier New',Courier,monospace" font-size="16">supabase  ·  postgresql  ·  firebase  ·  rest-apis</text>

<text x="40"  y="694" fill="#D97757" font-family="'Courier New',Courier,monospace" font-size="18">$</text>
<rect x="62"  y="677" width="11" height="18" fill="#D97757" opacity="0.6"/>

<!-- ═══════════════════════════════════════════════════════ -->
<!--  SECTION 3 · ABOUT / FOCUS                            -->
<!-- ═══════════════════════════════════════════════════════ -->
<line x1="0" y1="718" x2="900" y2="718" stroke="#2a2a2a" stroke-width="1.5" stroke-dasharray="3,5"/>

<text x="40"  y="752" fill="#888" font-family="'Courier New',Courier,monospace" font-size="18">ninodinoo@dev</text>
<text x="208" y="752" fill="#D97757" font-family="'Courier New',Courier,monospace" font-size="18">  ~/about  &#x26A1;</text>

<line x1="0" y1="768" x2="900" y2="768" stroke="#2a2a2a" stroke-width="1.5" stroke-dasharray="3,5"/>

<text x="40"  y="804" fill="#D97757" font-family="'Courier New',Courier,monospace" font-size="18">$</text>
<text x="62"  y="804" fill="#cccccc" font-family="'Courier New',Courier,monospace" font-size="18">cat focus.txt</text>

<text x="40"  y="836" fill="#D97757" font-family="'Courier New',Courier,monospace" font-size="18">&#x25B8;</text>
<text x="64"  y="836" fill="#cccccc" font-family="'Courier New',Courier,monospace" font-size="18">Building AI tools &amp; Claude Code extensions</text>

<text x="40"  y="866" fill="#444" font-family="'Courier New',Courier,monospace" font-size="18">&#x25B8;</text>
<text x="64"  y="866" fill="#888" font-family="'Courier New',Courier,monospace" font-size="18">MCP servers for AI-powered workflows</text>

<text x="40"  y="896" fill="#444" font-family="'Courier New',Courier,monospace" font-size="18">&#x25B8;</text>
<text x="64"  y="896" fill="#888" font-family="'Courier New',Courier,monospace" font-size="18">Cross-platform mobile apps (Flutter + Supabase)</text>

<text x="40"  y="926" fill="#444" font-family="'Courier New',Courier,monospace" font-size="18">&#x25B8;</text>
<text x="64"  y="926" fill="#888" font-family="'Courier New',Courier,monospace" font-size="18">LLM research, agentic systems &amp; prompt engineering</text>

<text x="40"  y="958" fill="#D97757" font-family="'Courier New',Courier,monospace" font-size="18">$</text>
<rect x="62"  y="941" width="11" height="18" fill="#D97757" opacity="0.6"/>

<!-- ═══════════════════════════════════════════════════════ -->
<!--  SECTION 4 · FOOTER                                   -->
<!-- ═══════════════════════════════════════════════════════ -->
<line x1="0" y1="982" x2="900" y2="982" stroke="#2a2a2a" stroke-width="1.5" stroke-dasharray="3,5"/>

<text x="40"  y="1014" fill="#3e3e3e" font-family="'Courier New',Courier,monospace" font-size="16">ninodinoo@dev  ·  session: active  ·  &#x1F995;  v1.0.0  ·  logout? [n]</text>
<text x="40"  y="1044" fill="#2a2a2a" font-family="'Courier New',Courier,monospace" font-size="14">Syntax theme: ninodinoo  (claude-code edition)</text>

</svg>
